<?xml version="1.0" encoding="UTF-8" standalone="no"?>
<svg
   viewBox="0 0 640 640"
   version="1.1"
   id="svg6"
   sodipodi:docname="icon.svg"
   inkscape:version="1.2.2 (b0a8486541, 2022-12-01)"
   xmlns:inkscape="http://www.inkscape.org/namespaces/inkscape"
   xmlns:sodipodi="http://sodipodi.sourceforge.net/DTD/sodipodi-0.dtd"
   xmlns="http://www.w3.org/2000/svg"
   xmlns:svg="http://www.w3.org/2000/svg">
  <defs
     id="defs10" />
  <sodipodi:namedview
     id="namedview8"
     pagecolor="#505050"
     bordercolor="#eeeeee"
     borderopacity="1"
     inkscape:showpageshadow="0"
     inkscape:pageopacity="0"
     inkscape:pagecheckerboard="0"
     inkscape:deskcolor="#505050"
     showgrid="false"
     inkscape:zoom="1.221875"
     inkscape:cx="320"
     inkscape:cy="320"
     inkscape:window-width="1920"
     inkscape:window-height="1011"
     inkscape:window-x="0"
     inkscape:window-y="0"
     inkscape:window-maximized="1"
     inkscape:current-layer="svg6">
    <inkscape:grid
       type="xygrid"
       id="grid170" />
  </sodipodi:namedview>
  <style
     id="style2">
    path {
        fill: #000;
    }
    @media(prefers-color-scheme: dark) {
        path {
            fill: #FFF;
        }
    }
</style>
  <path
     d="m 542.62053,117.37315 a 1.6326588,1.6326588 0 0 0 -0.83156,-0.7619 527.96378,527.96378 0 0 0 -130.27094,-40.387642 1.9766056,1.9766056 0 0 0 -2.09307,0.99048 367.30579,367.30579 0 0 0 -16.21775,33.306242 487.45533,487.45533 0 0 0 -146.31452,0 336.91656,336.91656 0 0 0 -16.47354,-33.306242 2.0571502,2.0571502 0 0 0 -2.09416,-0.99048 526.46608,526.46608 0 0 0 -130.273104,40.388722 1.863408,1.863408 0 0 0 -0.85769,0.73578 C 14.223574,241.25387 -8.5052139,362.11307 2.6447575,481.47567 a 2.1942934,2.1942934 0 0 0 0.832656,1.4966 530.7948,530.7948 0 0 0 159.8100765,80.75022 2.0680346,2.0680346 0 0 0 2.24545,-0.73579 378.99454,378.99454 0 0 0 32.69345,-53.16155 2.024497,2.024497 0 0 0 -1.10912,-2.81688 349.5773,349.5773 0 0 1 -49.92454,-23.78566 2.051708,2.051708 0 0 1 -0.20136,-3.40246 c 3.35458,-2.5132 6.71132,-5.12764 9.9146,-7.7682 a 1.979871,1.979871 0 0 1 2.06804,-0.27864 c 104.73942,47.801 218.1341,47.801 321.63378,0 a 1.9722518,1.9722518 0 0 1 2.09416,0.25362 c 3.20437,2.64054 6.56003,5.28002 9.93963,7.79322 a 2.0506195,2.0506195 0 0 1 -0.17633,3.40246 328.0632,328.0632 0 0 1 -49.94847,23.76062 2.0408236,2.0408236 0 0 0 -1.08844,2.84192 425.6396,425.6396 0 0 0 32.66841,53.13216 2.0288508,2.0288508 0 0 0 2.24546,0.76191 529.03371,529.03371 0 0 0 160.06804,-80.74695 2.0484426,2.0484426 0 0 0 0.83266,-1.47158 C 650.59153,343.50511 614.89507,223.63639 542.62053,117.37315 Z M 213.86835,408.79623 c -31.53426,0 -57.51748,-28.93834 -57.51748,-64.47806 0,-35.53972 25.47928,-64.48022 57.51748,-64.48022 32.28854,0 58.02034,29.19194 57.5164,64.47804 0,35.5419 -25.48036,64.48024 -57.5164,64.48024 z m 212.65926,0 c -31.53318,0 -57.5164,-28.93834 -57.5164,-64.47806 0,-35.53972 25.47928,-64.48022 57.5164,-64.48022 32.29072,0 58.02142,29.19194 57.51748,64.47804 0,35.5419 -25.22676,64.48024 -57.51748,64.48024 z"
     id="path4"
     style="stroke-width:1.08844" />
</svg>
